<?xml version="1.0" encoding="UTF-8" standalone="no"?>
<!-- Created with Inkscape (http://www.inkscape.org/) -->

<svg
   xmlns:dc="http://purl.org/dc/elements/1.1/"
   xmlns:cc="http://creativecommons.org/ns#"
   xmlns:rdf="http://www.w3.org/1999/02/22-rdf-syntax-ns#"
   xmlns:svg="http://www.w3.org/2000/svg"
   xmlns="http://www.w3.org/2000/svg"
   xmlns:xlink="http://www.w3.org/1999/xlink"
   xmlns:sodipodi="http://sodipodi.sourceforge.net/DTD/sodipodi-0.dtd"
   xmlns:inkscape="http://www.inkscape.org/namespaces/inkscape"
   width="744.09448819"
   height="1052.3622047"
   id="svg2"
   version="1.1"
   inkscape:version="0.48.5 r10040"
   sodipodi:docname="369.svg">
  <defs
     id="defs4">
    <linearGradient
       id="linearGradient3793">
      <stop
         style="stop-color:#ff9393;stop-opacity:1;"
         offset="0"
         id="stop3795" />
      <stop
         id="stop3803"
         offset="0.66890651"
         style="stop-color:#ff3434;stop-opacity:1;" />
      <stop
         style="stop-color:#730000;stop-opacity:1;"
         offset="1"
         id="stop3797" />
    </linearGradient>
    <radialGradient
       inkscape:collect="always"
       xlink:href="#linearGradient3793-6"
       id="radialGradient3799-1"
       cx="296.42856"
       cy="407.36218"
       fx="296.42856"
       fy="407.36218"
       r="274.07144"
       gradientUnits="userSpaceOnUse"
       gradientTransform="matrix(1.2523647,0.86035055,-0.71326563,1.0382613,215.74934,-270.61869)" />
    <linearGradient
       id="linearGradient3793-6">
      <stop
         style="stop-color:#ff9393;stop-opacity:1;"
         offset="0"
         id="stop3795-3" />
      <stop
         id="stop3803-2"
         offset="0.66890651"
         style="stop-color:#ff3434;stop-opacity:1;" />
      <stop
         style="stop-color:#730000;stop-opacity:1;"
         offset="1"
         id="stop3797-6" />
    </linearGradient>
    <radialGradient
       inkscape:collect="always"
       xlink:href="#linearGradient3793-8"
       id="radialGradient3799-0"
       cx="296.42856"
       cy="407.36218"
       fx="296.42856"
       fy="407.36218"
       r="274.07144"
       gradientUnits="userSpaceOnUse"
       gradientTransform="matrix(1.2523647,0.86035055,-0.71326563,1.0382613,215.74934,-270.61869)" />
    <linearGradient
       id="linearGradient3793-8">
      <stop
         style="stop-color:#ff9393;stop-opacity:1;"
         offset="0"
         id="stop3795-1" />
      <stop
         id="stop3803-22"
         offset="0.66890651"
         style="stop-color:#ff3434;stop-opacity:1;" />
      <stop
         style="stop-color:#730000;stop-opacity:1;"
         offset="1"
         id="stop3797-7" />
    </linearGradient>
    <clipPath
       clipPathUnits="userSpaceOnUse"
       id="clipPath4015">
      <rect
         style="fill:#000000;fill-opacity:1;stroke:#000000;stroke-width:4.49327183;stroke-miterlimit:4;stroke-opacity:1;stroke-dasharray:none"
         id="rect4017"
         width="627.14288"
         height="440.32178"
         x="66.428551"
         y="15.611825" />
    </clipPath>
    <clipPath
       clipPathUnits="userSpaceOnUse"
       id="clipPath4015-5">
      <rect
         style="fill:#000000;fill-opacity:1;stroke:#000000;stroke-width:4.49327183;stroke-miterlimit:4;stroke-opacity:1;stroke-dasharray:none"
         id="rect4017-9"
         width="627.14288"
         height="440.32178"
         x="66.428551"
         y="15.611825" />
    </clipPath>
    <clipPath
       clipPathUnits="userSpaceOnUse"
       id="clipPath4059">
      <rect
         style="fill:#000000;fill-opacity:1;stroke:#000000;stroke-width:39.58890533;stroke-miterlimit:4;stroke-opacity:1;stroke-dasharray:none"
         id="rect4061"
         width="430.22638"
         height="274.69855"
         x="-720.72821"
         y="25.371979" />
    </clipPath>
    <clipPath
       clipPathUnits="userSpaceOnUse"
       id="clipPath4059-3">
      <rect
         style="fill:#000000;fill-opacity:1;stroke:#000000;stroke-width:39.58890533;stroke-miterlimit:4;stroke-opacity:1;stroke-dasharray:none"
         id="rect4061-9"
         width="430.22638"
         height="274.69855"
         x="-720.72821"
         y="25.371979" />
    </clipPath>
  </defs>
  <sodipodi:namedview
     id="base"
     pagecolor="#ffffff"
     bordercolor="#666666"
     borderopacity="1.0"
     inkscape:pageopacity="0.0"
     inkscape:pageshadow="2"
     inkscape:zoom="0.24748737"
     inkscape:cx="960.70483"
     inkscape:cy="304.73386"
     inkscape:document-units="px"
     inkscape:current-layer="layer1"
     showgrid="false"
     inkscape:window-width="1680"
     inkscape:window-height="984"
     inkscape:window-x="0"
     inkscape:window-y="27"
     inkscape:window-maximized="1" />
  <metadata
     id="metadata7">
    <rdf:RDF>
      <cc:Work
         rdf:about="">
        <dc:format>image/svg+xml</dc:format>
        <dc:type
           rdf:resource="http://purl.org/dc/dcmitype/StillImage" />
        <dc:title />
      </cc:Work>
    </rdf:RDF>
  </metadata>
  <g
     inkscape:label="Layer 1"
     inkscape:groupmode="layer"
     id="layer1">
    <path
       style="fill:#000000"
       d=""
       id="path3010"
       inkscape:connector-curvature="0" />
    <path
       style="fill:#000000"
       d=""
       id="path3008"
       inkscape:connector-curvature="0" />
    <path
       style="fill:#000000"
       d=""
       id="path3006"
       inkscape:connector-curvature="0" />
    <path
       style="fill:#000000"
       d=""
       id="path3004"
       inkscape:connector-curvature="0" />
    <path
       style="fill:#000000"
       d=""
       id="path3002"
       inkscape:connector-curvature="0" />
    <path
       style="fill:#000000"
       d=""
       id="path3000"
       inkscape:connector-curvature="0" />
    <g
       id="g4391"
       transform="matrix(1.2661681,0,0,1.2661681,641.3168,401.1597)">
      <path
         transform="matrix(-0.33774496,0.58499144,-0.58499144,-0.33774496,83.564071,246.32897)"
         d="m 650,454.50504 c 0,151.08933 -122.48211,273.57144 -273.57144,273.57144 -151.08934,0 -273.57144,-122.48211 -273.57144,-273.57144 0,-151.08934 122.4821,-273.57145 273.57144,-273.57145 C 527.51789,180.93359 650,303.4157 650,454.50504 z"
         sodipodi:ry="273.57144"
         sodipodi:rx="273.57144"
         sodipodi:cy="454.50504"
         sodipodi:cx="376.42856"
         id="path3023-8"
         style="fill:#ff4b5c;fill-opacity:1;fill-rule:evenodd;stroke:none"
         sodipodi:type="arc" />
      <path
         inkscape:connector-curvature="0"
         id="path3023-6"
         d="m -215.36596,154.46803 c 51.581,54.03209 63.8016,137.56726 24.5626,205.53125 -47.6829,82.58915 -153.2859,110.90162 -235.87505,63.21875 -23.88011,-13.78719 -43.22221,-32.42167 -57.5,-53.9375 13.28992,42.89045 42.14072,81.09091 84.09375,105.3125 88.386,51.02966 201.4078,20.72972 252.4375,-67.65625 51.029631,-88.38597 20.7297,-201.40784 -67.6562,-252.4375 -0.0203,-0.0117 -0.0423,-0.0196 -0.0626,-0.0312 z"
         style="fill:#d02d5f;fill-opacity:1;fill-rule:evenodd;stroke:none" />
      <path
         transform="matrix(-0.17714961,0.30683214,-0.30683214,-0.17714961,-150.27982,233.89765)"
         d="m 650,454.50504 c 0,151.08933 -122.48211,273.57144 -273.57144,273.57144 -151.08934,0 -273.57144,-122.48211 -273.57144,-273.57144 0,-151.08934 122.4821,-273.57145 273.57144,-273.57145 C 527.51789,180.93359 650,303.4157 650,454.50504 z"
         sodipodi:ry="273.57144"
         sodipodi:rx="273.57144"
         sodipodi:cy="454.50504"
         sodipodi:cx="376.42856"
         id="path3023-7"
         style="fill:#ff7084;fill-opacity:1;fill-rule:evenodd;stroke:none"
         sodipodi:type="arc" />
    </g>
    <path
       sodipodi:type="arc"
       style="fill:none;stroke:#000000;stroke-width:30;stroke-linecap:butt;stroke-linejoin:miter;stroke-miterlimit:4;stroke-opacity:1;stroke-dasharray:none"
       id="path3023"
       sodipodi:cx="376.42856"
       sodipodi:cy="454.50504"
       sodipodi:rx="273.57144"
       sodipodi:ry="273.57144"
       d="m 650,454.50504 a 273.57144,273.57144 0 1 1 -547.14288,0 273.57144,273.57144 0 1 1 547.14288,0 z"
       transform="matrix(0.86633659,0,0,0.86633659,-76.113835,408.60784)" />
    <g
       id="g3913"
       transform="matrix(0.82287213,0,0,0.77241269,470.77038,194.94154)">
      <path
         inkscape:connector-curvature="0"
         id="path3023-9"
         d="m -484.21428,779.5 0,19.125 0.0312,0 c -0.0176,1.13403 -0.0625,2.26805 -0.0625,3.40625 0,119.29436 96.70469,216.00005 215.96875,216.00005 119.26405,0 215.937499,-96.70569 215.937499,-216.00005 0,-1.1382 -0.0137,-2.27222 -0.0312,-3.40625 l 0,-19.125 -431.843749,0 z"
         style="fill:#ffffff;fill-opacity:1;fill-rule:evenodd;stroke:#000000;stroke-width:23.68384361;stroke-linecap:butt;stroke-linejoin:miter;stroke-miterlimit:4;stroke-opacity:1;stroke-dasharray:none" />
      <path
         inkscape:connector-curvature="0"
         id="path3857"
         d="m -144.28569,782.77832 0,201.94199"
         style="fill:none;stroke:#000000;stroke-width:22.66408157;stroke-linecap:butt;stroke-linejoin:miter;stroke-miterlimit:4;stroke-opacity:1;stroke-dasharray:none" />
      <path
         inkscape:connector-curvature="0"
         id="path3857-3"
         d="m -268.57142,784.3618 0,228.0004"
         style="fill:none;stroke:#000000;stroke-width:24.08200264;stroke-linecap:butt;stroke-linejoin:miter;stroke-miterlimit:4;stroke-opacity:1;stroke-dasharray:none" />
      <path
         inkscape:connector-curvature="0"
         id="path3857-5"
         d="m -392.85714,777.44111 0,193.94544"
         style="fill:none;stroke:#000000;stroke-width:22.21082115;stroke-linecap:butt;stroke-linejoin:miter;stroke-miterlimit:4;stroke-opacity:1;stroke-dasharray:none" />
      <path
         inkscape:connector-curvature="0"
         id="path3857-3-4"
         d="m -75.070961,885.50503 -387.231029,0"
         style="fill:none;stroke:#000000;stroke-width:31.38411713;stroke-linecap:butt;stroke-linejoin:miter;stroke-miterlimit:4;stroke-opacity:1;stroke-dasharray:none" />
    </g>
    <g
       id="g4043"
       transform="matrix(0.97962674,0,0,0.97962674,609.66296,321.63041)">
      <path
         transform="translate(-181.42857,370)"
         d="m -227.14286,50.933609 c 0,14.201607 -11.51268,25.714285 -25.71429,25.714285 -14.2016,0 -25.71428,-11.512678 -25.71428,-25.714285 0,-14.201607 11.51268,-25.714285 25.71428,-25.714285 14.20161,0 25.71429,11.512678 25.71429,25.714285 z"
         sodipodi:ry="25.714285"
         sodipodi:rx="25.714285"
         sodipodi:cy="50.933609"
         sodipodi:cx="-252.85715"
         id="path3920"
         style="fill:#000000;fill-opacity:1;stroke:#000000;stroke-width:0;stroke-miterlimit:4;stroke-opacity:1;stroke-dasharray:none"
         sodipodi:type="arc" />
      <path
         transform="translate(-47.142853,374.28571)"
         d="m -227.14286,50.933609 c 0,14.201607 -11.51268,25.714285 -25.71429,25.714285 -14.2016,0 -25.71428,-11.512678 -25.71428,-25.714285 0,-14.201607 11.51268,-25.714285 25.71428,-25.714285 14.20161,0 25.71429,11.512678 25.71429,25.714285 z"
         sodipodi:ry="25.714285"
         sodipodi:rx="25.714285"
         sodipodi:cy="50.933609"
         sodipodi:cx="-252.85715"
         id="path3920-3"
         style="fill:#000000;fill-opacity:1;stroke:#000000;stroke-width:0;stroke-miterlimit:4;stroke-opacity:1;stroke-dasharray:none"
         sodipodi:type="arc" />
    </g>
    <g
       id="g4087"
       transform="matrix(0.86633659,0,0,0.99907045,564.66583,337.29374)">
      <path
         clip-path="url(#clipPath4059)"
         transform="matrix(0.64121316,0,0,0.7199966,-131.46007,153.45128)"
         d="m -394.28572,309.50504 c 0,63.90723 -54.36543,115.71428 -121.42857,115.71428 -67.06315,0 -121.42858,-51.80705 -121.42858,-115.71428 0,-63.90724 54.36543,-115.71429 121.42858,-115.71429 67.06314,0 121.42857,51.80705 121.42857,115.71429 z"
         sodipodi:ry="115.71429"
         sodipodi:rx="121.42857"
         sodipodi:cy="309.50504"
         sodipodi:cx="-515.71429"
         id="path4051"
         style="fill:none;stroke:#000000;stroke-width:43.85662842;stroke-miterlimit:4;stroke-opacity:1;stroke-dasharray:none"
         sodipodi:type="arc" />
      <path
         clip-path="url(#clipPath4059-3)"
         transform="matrix(-0.64121316,0,0,0.7199966,-594.96851,153.45128)"
         d="m -394.28572,309.50504 c 0,63.90723 -54.36543,115.71428 -121.42857,115.71428 -67.06315,0 -121.42858,-51.80705 -121.42858,-115.71428 0,-63.90724 54.36543,-115.71429 121.42858,-115.71429 67.06314,0 121.42857,51.80705 121.42857,115.71429 z"
         sodipodi:ry="115.71429"
         sodipodi:rx="121.42857"
         sodipodi:cy="309.50504"
         sodipodi:cx="-515.71429"
         id="path4051-7"
         style="fill:none;stroke:#000000;stroke-width:43.85662842;stroke-miterlimit:4;stroke-opacity:1;stroke-dasharray:none"
         sodipodi:type="arc" />
    </g>
  </g>
</svg>
