<?xml version="1.0" encoding="UTF-8" standalone="no"?>
<!-- Created with Inkscape (http://www.inkscape.org/) -->

<svg
   xmlns:dc="http://purl.org/dc/elements/1.1/"
   xmlns:cc="http://creativecommons.org/ns#"
   xmlns:rdf="http://www.w3.org/1999/02/22-rdf-syntax-ns#"
   xmlns:svg="http://www.w3.org/2000/svg"
   xmlns="http://www.w3.org/2000/svg"
   xmlns:xlink="http://www.w3.org/1999/xlink"
   xmlns:sodipodi="http://sodipodi.sourceforge.net/DTD/sodipodi-0.dtd"
   xmlns:inkscape="http://www.inkscape.org/namespaces/inkscape"
   width="744.09448819"
   height="1052.3622047"
   id="svg2"
   version="1.1"
   inkscape:version="0.48.5 r10040"
   sodipodi:docname="agree.svg">
  <defs
     id="defs4">
    <linearGradient
       id="linearGradient4754">
      <stop
         style="stop-color:#fffe29;stop-opacity:1;"
         offset="0"
         id="stop4756" />
      <stop
         style="stop-color:#d1d13f;stop-opacity:1;"
         offset="1"
         id="stop4758" />
    </linearGradient>
    <linearGradient
       id="linearGradient4607">
      <stop
         id="stop4609"
         offset="0"
         style="stop-color:#cecd20;stop-opacity:1;" />
      <stop
         style="stop-color:#d5c51b;stop-opacity:1;"
         offset="0.44732559"
         id="stop4611" />
      <stop
         id="stop4613"
         offset="1"
         style="stop-color:#8f8345;stop-opacity:1;" />
    </linearGradient>
    <linearGradient
       id="linearGradient4591">
      <stop
         style="stop-color:#cecd20;stop-opacity:1;"
         offset="0"
         id="stop4593" />
      <stop
         id="stop4601"
         offset="0.5"
         style="stop-color:#d5c51b;stop-opacity:1;" />
      <stop
         style="stop-color:#8f8345;stop-opacity:1;"
         offset="1"
         id="stop4595" />
    </linearGradient>
    <linearGradient
       id="linearGradient3793">
      <stop
         style="stop-color:#fbff79;stop-opacity:1;"
         offset="0"
         id="stop3795" />
      <stop
         id="stop3803"
         offset="0.66890651"
         style="stop-color:#ffee00;stop-opacity:1;" />
      <stop
         style="stop-color:#908d2e;stop-opacity:1;"
         offset="1"
         id="stop3797" />
    </linearGradient>
    <radialGradient
       inkscape:collect="always"
       xlink:href="#linearGradient3793"
       id="radialGradient3799"
       cx="296.42856"
       cy="407.36218"
       fx="296.42856"
       fy="407.36218"
       r="274.07144"
       gradientUnits="userSpaceOnUse"
       gradientTransform="matrix(1.2523647,0.86035055,-0.71326563,1.0382613,215.74934,-270.61869)" />
    <radialGradient
       inkscape:collect="always"
       xlink:href="#linearGradient3793-6"
       id="radialGradient3799-1"
       cx="296.42856"
       cy="407.36218"
       fx="296.42856"
       fy="407.36218"
       r="274.07144"
       gradientUnits="userSpaceOnUse"
       gradientTransform="matrix(1.2523647,0.86035055,-0.71326563,1.0382613,215.74934,-270.61869)" />
    <linearGradient
       id="linearGradient3793-6">
      <stop
         style="stop-color:#ff9393;stop-opacity:1;"
         offset="0"
         id="stop3795-3" />
      <stop
         id="stop3803-2"
         offset="0.66890651"
         style="stop-color:#ff3434;stop-opacity:1;" />
      <stop
         style="stop-color:#730000;stop-opacity:1;"
         offset="1"
         id="stop3797-6" />
    </linearGradient>
    <radialGradient
       inkscape:collect="always"
       xlink:href="#linearGradient3793-8"
       id="radialGradient3799-0"
       cx="296.42856"
       cy="407.36218"
       fx="296.42856"
       fy="407.36218"
       r="274.07144"
       gradientUnits="userSpaceOnUse"
       gradientTransform="matrix(1.2523647,0.86035055,-0.71326563,1.0382613,215.74934,-270.61869)" />
    <linearGradient
       id="linearGradient3793-8">
      <stop
         style="stop-color:#ff9393;stop-opacity:1;"
         offset="0"
         id="stop3795-1" />
      <stop
         id="stop3803-22"
         offset="0.66890651"
         style="stop-color:#ff3434;stop-opacity:1;" />
      <stop
         style="stop-color:#730000;stop-opacity:1;"
         offset="1"
         id="stop3797-7" />
    </linearGradient>
    <clipPath
       clipPathUnits="userSpaceOnUse"
       id="clipPath4015">
      <rect
         style="fill:#000000;fill-opacity:1;stroke:#000000;stroke-width:4.49327183;stroke-miterlimit:4;stroke-opacity:1;stroke-dasharray:none"
         id="rect4017"
         width="627.14288"
         height="440.32178"
         x="66.428551"
         y="15.611825" />
    </clipPath>
    <clipPath
       clipPathUnits="userSpaceOnUse"
       id="clipPath4015-5">
      <rect
         style="fill:#000000;fill-opacity:1;stroke:#000000;stroke-width:4.49327183;stroke-miterlimit:4;stroke-opacity:1;stroke-dasharray:none"
         id="rect4017-9"
         width="627.14288"
         height="440.32178"
         x="66.428551"
         y="15.611825" />
    </clipPath>
    <clipPath
       clipPathUnits="userSpaceOnUse"
       id="clipPath4059">
      <rect
         style="fill:#000000;fill-opacity:1;stroke:#000000;stroke-width:39.58890533;stroke-miterlimit:4;stroke-opacity:1;stroke-dasharray:none"
         id="rect4061"
         width="430.22638"
         height="274.69855"
         x="-720.72821"
         y="25.371979" />
    </clipPath>
    <clipPath
       clipPathUnits="userSpaceOnUse"
       id="clipPath4059-3">
      <rect
         style="fill:#000000;fill-opacity:1;stroke:#000000;stroke-width:39.58890533;stroke-miterlimit:4;stroke-opacity:1;stroke-dasharray:none"
         id="rect4061-9"
         width="430.22638"
         height="274.69855"
         x="-720.72821"
         y="25.371979" />
    </clipPath>
    <radialGradient
       inkscape:collect="always"
       xlink:href="#linearGradient3793-0"
       id="radialGradient3799-3"
       cx="296.42856"
       cy="407.36218"
       fx="296.42856"
       fy="407.36218"
       r="274.07144"
       gradientUnits="userSpaceOnUse"
       gradientTransform="matrix(1.2523647,0.86035055,-0.71326563,1.0382613,215.74934,-270.61869)" />
    <linearGradient
       id="linearGradient3793-0">
      <stop
         style="stop-color:#b8c1d6;stop-opacity:1;"
         offset="0"
         id="stop3795-2" />
      <stop
         id="stop3803-8"
         offset="0.66890651"
         style="stop-color:#8086c5;stop-opacity:1;" />
      <stop
         style="stop-color:#a598e6;stop-opacity:1;"
         offset="1"
         id="stop3797-5" />
    </linearGradient>
    <radialGradient
       inkscape:collect="always"
       xlink:href="#linearGradient3793-3"
       id="radialGradient3799-7"
       cx="296.42856"
       cy="407.36218"
       fx="296.42856"
       fy="407.36218"
       r="274.07144"
       gradientUnits="userSpaceOnUse"
       gradientTransform="matrix(1.2523647,0.86035055,-0.71326563,1.0382613,215.74934,-270.61869)" />
    <linearGradient
       id="linearGradient3793-3">
      <stop
         style="stop-color:#fbff79;stop-opacity:1;"
         offset="0"
         id="stop3795-34" />
      <stop
         id="stop3803-3"
         offset="0.66890651"
         style="stop-color:#ffee00;stop-opacity:1;" />
      <stop
         style="stop-color:#908d2e;stop-opacity:1;"
         offset="1"
         id="stop3797-0" />
    </linearGradient>
    <radialGradient
       inkscape:collect="always"
       xlink:href="#linearGradient4607-7"
       id="radialGradient4605-1"
       cx="554.90381"
       cy="300.36075"
       fx="554.90381"
       fy="300.36075"
       r="20.000006"
       gradientTransform="matrix(1.8361227,1.7753824,-2.4344231,2.5177107,270.90505,-1454.7401)"
       gradientUnits="userSpaceOnUse" />
    <linearGradient
       id="linearGradient4607-7">
      <stop
         id="stop4609-0"
         offset="0"
         style="stop-color:#cecd20;stop-opacity:1;" />
      <stop
         style="stop-color:#d5c51b;stop-opacity:1;"
         offset="0.44732559"
         id="stop4611-1" />
      <stop
         id="stop4613-6"
         offset="1"
         style="stop-color:#8f8345;stop-opacity:1;" />
    </linearGradient>
    <radialGradient
       inkscape:collect="always"
       xlink:href="#linearGradient4607-5"
       id="radialGradient4605-3"
       cx="554.90381"
       cy="300.36075"
       fx="554.90381"
       fy="300.36075"
       r="20.000006"
       gradientTransform="matrix(1.8361227,1.7753824,-2.4344231,2.5177107,270.90505,-1454.7401)"
       gradientUnits="userSpaceOnUse" />
    <linearGradient
       id="linearGradient4607-5">
      <stop
         id="stop4609-06"
         offset="0"
         style="stop-color:#cecd20;stop-opacity:1;" />
      <stop
         style="stop-color:#d5c51b;stop-opacity:1;"
         offset="0.44732559"
         id="stop4611-9" />
      <stop
         id="stop4613-7"
         offset="1"
         style="stop-color:#8f8345;stop-opacity:1;" />
    </linearGradient>
    <linearGradient
       inkscape:collect="always"
       xlink:href="#linearGradient4754"
       id="linearGradient4776"
       gradientUnits="userSpaceOnUse"
       x1="431.63965"
       y1="328.07648"
       x2="622.85718"
       y2="328.07648" />
  </defs>
  <sodipodi:namedview
     id="base"
     pagecolor="#ffffff"
     bordercolor="#666666"
     borderopacity="1.0"
     inkscape:pageopacity="0.0"
     inkscape:pageshadow="2"
     inkscape:zoom="0.70000002"
     inkscape:cx="293.67792"
     inkscape:cy="410.12042"
     inkscape:document-units="px"
     inkscape:current-layer="layer1"
     showgrid="false"
     inkscape:window-width="1680"
     inkscape:window-height="984"
     inkscape:window-x="0"
     inkscape:window-y="27"
     inkscape:window-maximized="1"
     inkscape:snap-bbox="false" />
  <metadata
     id="metadata7">
    <rdf:RDF>
      <cc:Work
         rdf:about="">
        <dc:format>image/svg+xml</dc:format>
        <dc:type
           rdf:resource="http://purl.org/dc/dcmitype/StillImage" />
        <dc:title />
      </cc:Work>
    </rdf:RDF>
  </metadata>
  <g
     inkscape:label="Layer 1"
     inkscape:groupmode="layer"
     id="layer1">
    <path
       style="fill:#000000"
       d=""
       id="path3010"
       inkscape:connector-curvature="0" />
    <path
       style="fill:#000000"
       d=""
       id="path3008"
       inkscape:connector-curvature="0" />
    <path
       style="fill:#000000"
       d=""
       id="path3006"
       inkscape:connector-curvature="0" />
    <path
       style="fill:#000000"
       d=""
       id="path3004"
       inkscape:connector-curvature="0" />
    <path
       style="fill:#000000"
       d=""
       id="path3002"
       inkscape:connector-curvature="0" />
    <path
       style="fill:#000000"
       d=""
       id="path3000"
       inkscape:connector-curvature="0" />
    <path
       style="fill:#fffa00;fill-opacity:1;stroke:#000000;stroke-width:13.76567745;stroke-miterlimit:4;stroke-opacity:1;stroke-dasharray:none"
       d="m 445.82538,836.22311 c -1.45903,0.10407 -2.93578,0.14626 -4.42235,0.14626 l -43.7176,0 c 1.03665,4.50473 1.59922,9.19799 1.59922,14.02479 l 0,20.24901 c 0,34.40217 -27.80862,62.0959 -62.35349,62.0959 l -36.48845,0 c -4.88695,0 -9.63954,-0.55982 -14.19721,-1.60887 l 0,53.33648 c 3.41524,0.31877 6.87695,0.48753 10.37864,0.48753 l 40.45389,0 c 60.30734,0 108.86159,-48.3374 108.86159,-108.39559 l 0,-35.36264 c 0,-1.66819 -0.0401,-3.32353 -0.11424,-4.97287 z"
       id="rect4406"
       inkscape:connector-curvature="0" />
    <path
       style="fill:#e7e431;fill-opacity:1;stroke:none"
       d="m 438.50238,836.31754 c -1.38183,0.0998 -2.78092,0.10254 -4.18832,0.1403 l -26.56733,0.71261 c -5.53979,11.14406 -3.84331,37.59807 -6.2571,49.97928 -6.31258,32.37937 -45.42817,61.41233 -78.12994,62.4145 l -23.2533,0.71263 c -4.62621,0.14176 -9.12945,-0.53699 -13.44593,-1.54327 l 0.70651,29.78312 c 3.23453,0.30578 6.51305,0.46766 9.82945,0.46766 l 38.31319,0 c 57.11606,0 103.10096,-46.36652 103.10096,-103.97594 l 0,-33.92079 c 0,-1.60016 -0.038,-3.18801 -0.10819,-4.7701 z"
       id="rect4406-8"
       inkscape:connector-curvature="0"
       sodipodi:nodetypes="csccssccssssc" />
    <g
       id="g4930"
       transform="matrix(0.94037155,0,0,0.84899943,-60.335018,475.09711)">
      <path
         transform="matrix(0.81521739,0,0,1,12.143788,282.84271)"
         d="m 317.1879,86.656349 c 0,75.873291 -41.60799,137.380751 -92.93404,137.380751 -51.32605,0 -92.93404,-61.50746 -92.93404,-137.380751 0,-75.873294 41.60799,-137.380752 92.93404,-137.380752 51.32605,0 92.93404,61.507458 92.93404,137.380752 z"
         sodipodi:ry="137.38075"
         sodipodi:rx="92.934036"
         sodipodi:cy="86.656349"
         sodipodi:cx="224.25386"
         id="path4904"
         style="fill:#000000;fill-opacity:1;stroke:none"
         sodipodi:type="arc" />
      <path
         transform="matrix(0.81521739,0,0,1,85.884929,282.84271)"
         d="m 317.1879,86.656349 c 0,75.873291 -41.60799,137.380751 -92.93404,137.380751 -51.32605,0 -92.93404,-61.50746 -92.93404,-137.380751 0,-75.873294 41.60799,-137.380752 92.93404,-137.380752 51.32605,0 92.93404,61.507458 92.93404,137.380752 z"
         sodipodi:ry="137.38075"
         sodipodi:rx="92.934036"
         sodipodi:cy="86.656349"
         sodipodi:cx="224.25386"
         id="path4904-9"
         style="fill:#000000;fill-opacity:1;stroke:none"
         sodipodi:type="arc" />
    </g>
    <g
       id="g5947"
       transform="matrix(0.6306853,0,0,0.6306853,-403.6035,555.25946)">
      <path
         transform="matrix(-0.37826602,-0.76708876,0.76708876,-0.37826602,685.72378,994.58308)"
         d="m 650,454.50504 c 0,151.08933 -122.48211,273.57144 -273.57144,273.57144 -151.08934,0 -273.57144,-122.48211 -273.57144,-273.57144 0,-151.08934 122.4821,-273.57145 273.57144,-273.57145 C 527.51789,180.93359 650,303.4157 650,454.50504 z"
         sodipodi:ry="273.57144"
         sodipodi:rx="273.57144"
         sodipodi:cy="454.50504"
         sodipodi:cx="376.42856"
         id="path3023-8"
         style="fill:#f4ff15;fill-opacity:1;fill-rule:evenodd;stroke:none"
         sodipodi:type="arc" />
      <path
         inkscape:connector-curvature="0"
         id="path3023-6"
         d="M 992.71942,744.50112 C 899.55074,760.79398 803.01101,714.8951 759.06425,625.77517 c -53.40361,-108.2977 -8.92169,-239.38978 99.37598,-292.79341 31.31356,-15.44131 64.53784,-22.69525 97.23292,-22.59072 -54.50261,-16.18088 -115.01433,-12.68055 -170.02658,14.44704 -115.89896,57.152 -163.50742,197.45246 -106.35548,313.35143 57.15198,115.8989 197.45251,163.50742 313.35139,106.35553 0.0266,-0.0131 0.0504,-0.0308 0.0769,-0.044 z"
         style="fill:#d6e100;fill-opacity:1;fill-rule:evenodd;stroke:none" />
      <path
         transform="matrix(-0.1984032,-0.40234347,0.40234347,-0.1984032,863.31267,757.14538)"
         d="m 650,454.50504 c 0,151.08933 -122.48211,273.57144 -273.57144,273.57144 -151.08934,0 -273.57144,-122.48211 -273.57144,-273.57144 0,-151.08934 122.4821,-273.57145 273.57144,-273.57145 C 527.51789,180.93359 650,303.4157 650,454.50504 z"
         sodipodi:ry="273.57144"
         sodipodi:rx="273.57144"
         sodipodi:cy="454.50504"
         sodipodi:cx="376.42856"
         id="path3023-7"
         style="fill:#faff95;fill-opacity:1;fill-rule:evenodd;stroke:none"
         sodipodi:type="arc" />
      <path
         transform="matrix(0.86633659,0,0,0.86633659,563.83054,144.44021)"
         d="m 650,454.50504 c 0,151.08933 -122.48211,273.57144 -273.57144,273.57144 -151.08934,0 -273.57144,-122.48211 -273.57144,-273.57144 0,-151.08934 122.4821,-273.57145 273.57144,-273.57145 C 527.51789,180.93359 650,303.4157 650,454.50504 z"
         sodipodi:ry="273.57144"
         sodipodi:rx="273.57144"
         sodipodi:cy="454.50504"
         sodipodi:cx="376.42856"
         id="path3023-3"
         style="fill:none;stroke:#000000;stroke-width:30;stroke-linecap:butt;stroke-linejoin:miter;stroke-miterlimit:4;stroke-opacity:1;stroke-dasharray:none"
         sodipodi:type="arc" />
    </g>
    <path
       sodipodi:type="arc"
       style="fill:none;stroke:#000000;stroke-width:21.7159996;stroke-linecap:round;stroke-linejoin:round;stroke-miterlimit:4;stroke-opacity:1;stroke-dasharray:none"
       id="path4402"
       sodipodi:cx="-102.14286"
       sodipodi:cy="-44.066391"
       sodipodi:rx="97.85714"
       sodipodi:ry="90.714287"
       d="M -7.8537531,-19.793947 A 97.85714,90.714287 0 0 1 -196.218,-19.090689"
       sodipodi:start="0.27087045"
       sodipodi:end="2.8626673"
       sodipodi:open="true"
       transform="matrix(0.73523212,0,0,0.68792792,232.69138,941.88326)" />
    <g
       id="g4733"
       style="fill:#e2e956;fill-opacity:1;stroke:#000000;stroke-width:15;stroke-miterlimit:4;stroke-opacity:1;stroke-dasharray:none"
       transform="matrix(0.84899943,0,0,0.84899943,-208.61127,164.97158)">
      <path
         style="fill:#e2e956;fill-opacity:1;stroke:#000000;stroke-width:15;stroke-miterlimit:4;stroke-opacity:1;stroke-dasharray:none"
         d="m 674.61161,505.48214 c -5.40145,0 -9.75,38.8942 -9.75,87.1875 l 0,22.78125 c 0,22.4247 0.95473,42.76902 2.5,58.1875 -1.07442,3.94163 -1.9078,8.00427 -2.46875,12.15625 -7.2746,4.15022 -13.55387,9.31062 -18.40625,15.4375 l -0.65625,0.8125 c -21.77674,27.49651 -6.42412,63.48946 34.4375,80.6875 l 12.6875,5.34375 c 14.03657,12.668 32.14227,20.28125 51.96875,20.28125 l 1.34375,0 c 25.20432,0 47.6278,-12.30166 62.4375,-31.65625 0.0364,-0.0371 0.0575,-0.0879 0.0937,-0.125 1.34739,-1.38055 2.62838,-2.81737 3.8125,-4.3125 l 0.65625,-0.8125 c 5.54974,-7.00741 8.6757,-14.59177 9.59375,-22.25 2.74813,-8.78599 4.28125,-18.18876 4.28125,-28 l 0,-22.8125 c 0,-10.4697 -1.70025,-20.49673 -4.8125,-29.78125 1.16344,-14.36017 1.84375,-31.99368 1.84375,-51.15625 l 0,-22.78125 c 0,-48.2933 -4.34855,-87.1875 -9.75,-87.1875 l -22.1875,0 c -5.40145,0 -9.75,38.8942 -9.75,87.1875 l 0,22.78125 c 0,0.99206 0.0276,1.95362 0.0312,2.9375 -10.89323,-5.8684 -23.19925,-9.15625 -36.25,-9.15625 l -1.34375,0 c -13.91299,0 -26.996,3.72897 -38.40625,10.34375 0.0157,-2.03171 0.0312,-4.05648 0.0312,-6.125 l 0,-22.78125 c 0,-48.2933 -4.34855,-87.1875 -9.75,-87.1875 l -22.1875,0 z"
         id="rect4482"
         inkscape:connector-curvature="0" />
    </g>
    <rect
       style="fill:#f3ff00;fill-opacity:1;stroke:#000000;stroke-width:12.73499107;stroke-miterlimit:4;stroke-opacity:1;stroke-dasharray:none"
       id="rect4563-0"
       width="33.959988"
       height="77.622803"
       x="417.46515"
       y="667.88672"
       rx="11.673745"
       ry="27.173843" />
    <rect
       style="fill:#f3ff00;fill-opacity:1;stroke:#000000;stroke-width:12.73499107;stroke-miterlimit:4;stroke-opacity:1;stroke-dasharray:none"
       id="rect4563-0-9"
       width="33.959988"
       height="77.622803"
       x="380.83688"
       y="667.40161"
       rx="11.673745"
       ry="27.173843" />
    <path
       style="fill:#f2ff00;fill-opacity:1;stroke:#000000;stroke-width:12.73499107;stroke-miterlimit:4;stroke-opacity:1;stroke-dasharray:none"
       d="m 327.29424,807.69754 c 7.38032,16.81633 26.49179,29.34711 48.33231,28.00972 15.48326,-2.28549 27.04295,-15.12149 31.95168,-27.61208 2.59268,-6.96232 3.96208,-15.37124 -0.87203,-21.09871 -7.21931,-6.02168 -18.85475,-3.17692 -27.81889,-5.89602 -6.30732,-1.53456 -11.49738,-5.95283 -12.03983,-11.95484 -2.23483,-9.25001 -0.0881,-20.07437 7.90411,-27.86333 4.34955,-4.93634 5.40444,-11.04548 4.68746,-16.68761 -0.32929,-5.2779 -1.56604,-10.68495 -5.29545,-14.67664 -6.69593,-3.24029 -13.25989,3.70435 -17.41781,8.17295 -28.41386,44.96479 -38.35782,62.90605 -29.43158,89.60657 z"
       id="path4804"
       inkscape:connector-curvature="0"
       sodipodi:nodetypes="ccccccccccc" />
    <path
       style="fill:#000000;fill-opacity:1;stroke:none"
       d="m 70.690067,816.57864 c -12.578954,0 -22.716525,10.32149 -22.716525,23.13042 l 0,27.73854 c 0,12.80891 10.137571,23.13043 22.716525,23.13043 l 35.038093,0 c 19.33008,-11.16035 34.70366,-32.75314 51.95375,-49.72256 17.24546,16.96771 32.60674,38.56466 51.93259,49.72256 l 35.03808,0 c 12.57894,0 22.71652,-10.32152 22.71652,-23.13043 l 0,-27.73854 c 0,-12.80893 -10.13758,-23.13042 -22.71652,-23.13042 l -80.1536,0 -13.63415,0 -80.174763,0 z"
       id="rect4817-7"
       inkscape:connector-curvature="0" />
  </g>
</svg>
