<?xml version="1.0" encoding="UTF-8" standalone="no"?>
<!-- Created with Inkscape (http://www.inkscape.org/) -->

<svg
   xmlns:dc="http://purl.org/dc/elements/1.1/"
   xmlns:cc="http://creativecommons.org/ns#"
   xmlns:rdf="http://www.w3.org/1999/02/22-rdf-syntax-ns#"
   xmlns:svg="http://www.w3.org/2000/svg"
   xmlns="http://www.w3.org/2000/svg"
   xmlns:xlink="http://www.w3.org/1999/xlink"
   xmlns:sodipodi="http://sodipodi.sourceforge.net/DTD/sodipodi-0.dtd"
   xmlns:inkscape="http://www.inkscape.org/namespaces/inkscape"
   width="744.09448819"
   height="1052.3622047"
   id="svg2"
   version="1.1"
   inkscape:version="0.48.5 r10040"
   sodipodi:docname="love.svg">
  <defs
     id="defs4">
    <linearGradient
       id="linearGradient3793">
      <stop
         style="stop-color:#fff7d2;stop-opacity:1;"
         offset="0"
         id="stop3795" />
      <stop
         id="stop3803"
         offset="0.65566576"
         style="stop-color:#ffeb00;stop-opacity:1;" />
      <stop
         style="stop-color:#85836a;stop-opacity:1;"
         offset="1"
         id="stop3797" />
    </linearGradient>
    <radialGradient
       inkscape:collect="always"
       xlink:href="#linearGradient3793-6"
       id="radialGradient3799-1"
       cx="296.42856"
       cy="407.36218"
       fx="296.42856"
       fy="407.36218"
       r="274.07144"
       gradientUnits="userSpaceOnUse"
       gradientTransform="matrix(1.2523647,0.86035055,-0.71326563,1.0382613,215.74934,-270.61869)" />
    <linearGradient
       id="linearGradient3793-6">
      <stop
         style="stop-color:#ff9393;stop-opacity:1;"
         offset="0"
         id="stop3795-3" />
      <stop
         id="stop3803-2"
         offset="0.66890651"
         style="stop-color:#ff3434;stop-opacity:1;" />
      <stop
         style="stop-color:#730000;stop-opacity:1;"
         offset="1"
         id="stop3797-6" />
    </linearGradient>
    <radialGradient
       inkscape:collect="always"
       xlink:href="#linearGradient3793-8"
       id="radialGradient3799-0"
       cx="296.42856"
       cy="407.36218"
       fx="296.42856"
       fy="407.36218"
       r="274.07144"
       gradientUnits="userSpaceOnUse"
       gradientTransform="matrix(1.2523647,0.86035055,-0.71326563,1.0382613,215.74934,-270.61869)" />
    <linearGradient
       id="linearGradient3793-8">
      <stop
         style="stop-color:#ff9393;stop-opacity:1;"
         offset="0"
         id="stop3795-1" />
      <stop
         id="stop3803-22"
         offset="0.66890651"
         style="stop-color:#ff3434;stop-opacity:1;" />
      <stop
         style="stop-color:#730000;stop-opacity:1;"
         offset="1"
         id="stop3797-7" />
    </linearGradient>
    <clipPath
       clipPathUnits="userSpaceOnUse"
       id="clipPath4015">
      <rect
         style="fill:#000000;fill-opacity:1;stroke:#000000;stroke-width:4.49327183;stroke-miterlimit:4;stroke-opacity:1;stroke-dasharray:none"
         id="rect4017"
         width="627.14288"
         height="440.32178"
         x="66.428551"
         y="15.611825" />
    </clipPath>
    <clipPath
       clipPathUnits="userSpaceOnUse"
       id="clipPath4015-5">
      <rect
         style="fill:#000000;fill-opacity:1;stroke:#000000;stroke-width:4.49327183;stroke-miterlimit:4;stroke-opacity:1;stroke-dasharray:none"
         id="rect4017-9"
         width="627.14288"
         height="440.32178"
         x="66.428551"
         y="15.611825" />
    </clipPath>
    <clipPath
       clipPathUnits="userSpaceOnUse"
       id="clipPath4059">
      <rect
         style="fill:#000000;fill-opacity:1;stroke:#000000;stroke-width:39.58890533;stroke-miterlimit:4;stroke-opacity:1;stroke-dasharray:none"
         id="rect4061"
         width="430.22638"
         height="274.69855"
         x="-720.72821"
         y="25.371979" />
    </clipPath>
    <clipPath
       clipPathUnits="userSpaceOnUse"
       id="clipPath4059-3">
      <rect
         style="fill:#000000;fill-opacity:1;stroke:#000000;stroke-width:39.58890533;stroke-miterlimit:4;stroke-opacity:1;stroke-dasharray:none"
         id="rect4061-9"
         width="430.22638"
         height="274.69855"
         x="-720.72821"
         y="25.371979" />
    </clipPath>
  </defs>
  <sodipodi:namedview
     id="base"
     pagecolor="#ffffff"
     bordercolor="#666666"
     borderopacity="1.0"
     inkscape:pageopacity="0.0"
     inkscape:pageshadow="2"
     inkscape:zoom="0.35"
     inkscape:cx="880.38358"
     inkscape:cy="849.36497"
     inkscape:document-units="px"
     inkscape:current-layer="layer1"
     showgrid="false"
     inkscape:window-width="1270"
     inkscape:window-height="886"
     inkscape:window-x="259"
     inkscape:window-y="77"
     inkscape:window-maximized="0" />
  <metadata
     id="metadata7">
    <rdf:RDF>
      <cc:Work
         rdf:about="">
        <dc:format>image/svg+xml</dc:format>
        <dc:type
           rdf:resource="http://purl.org/dc/dcmitype/StillImage" />
        <dc:title />
      </cc:Work>
    </rdf:RDF>
  </metadata>
  <g
     inkscape:label="Layer 1"
     inkscape:groupmode="layer"
     id="layer1">
    <path
       style="fill:#000000"
       d=""
       id="path3010"
       inkscape:connector-curvature="0" />
    <path
       style="fill:#000000"
       d=""
       id="path3008"
       inkscape:connector-curvature="0" />
    <path
       style="fill:#000000"
       d=""
       id="path3006"
       inkscape:connector-curvature="0" />
    <path
       style="fill:#000000"
       d=""
       id="path3004"
       inkscape:connector-curvature="0" />
    <path
       style="fill:#000000"
       d=""
       id="path3002"
       inkscape:connector-curvature="0" />
    <path
       style="fill:#000000"
       d=""
       id="path3000"
       inkscape:connector-curvature="0" />
    <g
       id="g38885"
       transform="translate(-944.28571,827.14286)">
      <g
         style="fill:#fff800;fill-opacity:1"
         transform="matrix(1.2661681,0,0,1.2661681,1585.6025,-425.98316)"
         id="g4391">
        <path
           sodipodi:type="arc"
           style="fill:#fff800;fill-opacity:1;fill-rule:evenodd;stroke:none"
           id="path3023-8"
           sodipodi:cx="376.42856"
           sodipodi:cy="454.50504"
           sodipodi:rx="273.57144"
           sodipodi:ry="273.57144"
           d="m 650,454.50504 c 0,151.08933 -122.48211,273.57144 -273.57144,273.57144 -151.08934,0 -273.57144,-122.48211 -273.57144,-273.57144 0,-151.08934 122.4821,-273.57145 273.57144,-273.57145 C 527.51789,180.93359 650,303.4157 650,454.50504 z"
           transform="matrix(-0.33774496,0.58499144,-0.58499144,-0.33774496,83.564071,246.32897)" />
        <path
           style="fill:#e9d932;fill-opacity:1;fill-rule:evenodd;stroke:none"
           d="m -215.36596,154.46803 c 51.581,54.03209 63.8016,137.56726 24.5626,205.53125 -47.6829,82.58915 -153.2859,110.90162 -235.87505,63.21875 -23.88011,-13.78719 -43.22221,-32.42167 -57.5,-53.9375 13.28992,42.89045 42.14072,81.09091 84.09375,105.3125 88.386,51.02966 201.4078,20.72972 252.4375,-67.65625 51.029631,-88.38597 20.7297,-201.40784 -67.6562,-252.4375 -0.0203,-0.0117 -0.0423,-0.0196 -0.0626,-0.0312 z"
           id="path3023-6"
           inkscape:connector-curvature="0" />
        <path
           sodipodi:type="arc"
           style="fill:#fffc9e;fill-opacity:1;fill-rule:evenodd;stroke:none"
           id="path3023-7"
           sodipodi:cx="376.42856"
           sodipodi:cy="454.50504"
           sodipodi:rx="273.57144"
           sodipodi:ry="273.57144"
           d="m 650,454.50504 c 0,151.08933 -122.48211,273.57144 -273.57144,273.57144 -151.08934,0 -273.57144,-122.48211 -273.57144,-273.57144 0,-151.08934 122.4821,-273.57145 273.57144,-273.57145 C 527.51789,180.93359 650,303.4157 650,454.50504 z"
           transform="matrix(-0.17714961,0.30683214,-0.30683214,-0.17714961,-150.27982,233.89765)" />
      </g>
      <path
         transform="matrix(0.86633659,0,0,0.86633659,868.17188,-418.53502)"
         d="m 650,454.50504 c 0,151.08933 -122.48211,273.57144 -273.57144,273.57144 -151.08934,0 -273.57144,-122.48211 -273.57144,-273.57144 0,-151.08934 122.4821,-273.57145 273.57144,-273.57145 C 527.51789,180.93359 650,303.4157 650,454.50504 z"
         sodipodi:ry="273.57144"
         sodipodi:rx="273.57144"
         sodipodi:cy="454.50504"
         sodipodi:cx="376.42856"
         id="path3023-3"
         style="fill:none;stroke:#000000;stroke-width:30;stroke-linecap:butt;stroke-linejoin:miter;stroke-miterlimit:4;stroke-opacity:1;stroke-dasharray:none"
         sodipodi:type="arc" />
    </g>
    <path
       sodipodi:type="arc"
       style="fill:#000000;fill-opacity:1;stroke:none"
       id="path10941"
       sodipodi:cx="436.42856"
       sodipodi:cy="273.07648"
       sodipodi:rx="217.85715"
       sodipodi:ry="217.85715"
       d="m 654.28571,273.07648 a 217.85715,217.85715 0 1 1 -435.7143,-1e-5 l 217.85715,1e-5 z"
       sodipodi:start="0"
       sodipodi:end="3.1415927"
       transform="matrix(0.51242961,0,0,0.44361456,26.361083,729.48882)" />
    <g
       id="g6001"
       transform="matrix(0.86633659,0,0,0.86633659,-86.962997,479.15238)">
      <path
         sodipodi:nodetypes="caacaac"
         inkscape:connector-curvature="0"
         id="rect5979"
         d="m 266.47463,224.21936 c 0,0 28.86802,-29.92268 46.42141,-26.68858 24.06412,4.43367 47.00338,32.40346 46.42138,56.86569 -1.10104,46.28068 -92.84279,103.28711 -92.84279,103.28711 0,0 -91.74171,-57.00643 -92.84282,-103.28711 -0.582,-24.46223 22.35729,-52.43203 46.4214,-56.86569 17.55339,-3.2341 46.42142,26.68858 46.42142,26.68858 z"
         style="fill:#ff2a2d;fill-opacity:1;stroke:none" />
      <path
         sodipodi:nodetypes="caacaac"
         inkscape:connector-curvature="0"
         id="rect5979-5"
         d="m 511.42859,224.21936 c 0,0 28.86802,-29.92268 46.42141,-26.68858 24.06412,4.43367 47.00338,32.40346 46.42138,56.86569 -1.10104,46.28068 -92.84279,103.28711 -92.84279,103.28711 0,0 -91.74171,-57.00643 -92.84282,-103.28711 -0.582,-24.46223 22.35729,-52.43203 46.4214,-56.86569 17.55339,-3.2341 46.42142,26.68858 46.42142,26.68858 z"
         style="fill:#ff2a2d;fill-opacity:1;stroke:none" />
    </g>
  </g>
</svg>
