<?xml version="1.0" encoding="UTF-8" standalone="no"?>
<!-- Created with Inkscape (http://www.inkscape.org/) -->

<svg
   xmlns:dc="http://purl.org/dc/elements/1.1/"
   xmlns:cc="http://creativecommons.org/ns#"
   xmlns:rdf="http://www.w3.org/1999/02/22-rdf-syntax-ns#"
   xmlns:svg="http://www.w3.org/2000/svg"
   xmlns="http://www.w3.org/2000/svg"
   xmlns:xlink="http://www.w3.org/1999/xlink"
   xmlns:sodipodi="http://sodipodi.sourceforge.net/DTD/sodipodi-0.dtd"
   xmlns:inkscape="http://www.inkscape.org/namespaces/inkscape"
   width="744.09448819"
   height="1052.3622047"
   id="svg2"
   version="1.1"
   inkscape:version="0.48.5 r10040"
   sodipodi:docname="no.svg">
  <defs
     id="defs4">
    <linearGradient
       id="linearGradient3793">
      <stop
         style="stop-color:#fff7d2;stop-opacity:1;"
         offset="0"
         id="stop3795" />
      <stop
         id="stop3803"
         offset="0.65566576"
         style="stop-color:#ffeb00;stop-opacity:1;" />
      <stop
         style="stop-color:#85836a;stop-opacity:1;"
         offset="1"
         id="stop3797" />
    </linearGradient>
    <radialGradient
       inkscape:collect="always"
       xlink:href="#linearGradient3793-6"
       id="radialGradient3799-1"
       cx="296.42856"
       cy="407.36218"
       fx="296.42856"
       fy="407.36218"
       r="274.07144"
       gradientUnits="userSpaceOnUse"
       gradientTransform="matrix(1.2523647,0.86035055,-0.71326563,1.0382613,215.74934,-270.61869)" />
    <linearGradient
       id="linearGradient3793-6">
      <stop
         style="stop-color:#ff9393;stop-opacity:1;"
         offset="0"
         id="stop3795-3" />
      <stop
         id="stop3803-2"
         offset="0.66890651"
         style="stop-color:#ff3434;stop-opacity:1;" />
      <stop
         style="stop-color:#730000;stop-opacity:1;"
         offset="1"
         id="stop3797-6" />
    </linearGradient>
    <radialGradient
       inkscape:collect="always"
       xlink:href="#linearGradient3793-8"
       id="radialGradient3799-0"
       cx="296.42856"
       cy="407.36218"
       fx="296.42856"
       fy="407.36218"
       r="274.07144"
       gradientUnits="userSpaceOnUse"
       gradientTransform="matrix(1.2523647,0.86035055,-0.71326563,1.0382613,215.74934,-270.61869)" />
    <linearGradient
       id="linearGradient3793-8">
      <stop
         style="stop-color:#ff9393;stop-opacity:1;"
         offset="0"
         id="stop3795-1" />
      <stop
         id="stop3803-22"
         offset="0.66890651"
         style="stop-color:#ff3434;stop-opacity:1;" />
      <stop
         style="stop-color:#730000;stop-opacity:1;"
         offset="1"
         id="stop3797-7" />
    </linearGradient>
    <clipPath
       clipPathUnits="userSpaceOnUse"
       id="clipPath4015">
      <rect
         style="fill:#000000;fill-opacity:1;stroke:#000000;stroke-width:4.49327183;stroke-miterlimit:4;stroke-opacity:1;stroke-dasharray:none"
         id="rect4017"
         width="627.14288"
         height="440.32178"
         x="66.428551"
         y="15.611825" />
    </clipPath>
    <clipPath
       clipPathUnits="userSpaceOnUse"
       id="clipPath4015-5">
      <rect
         style="fill:#000000;fill-opacity:1;stroke:#000000;stroke-width:4.49327183;stroke-miterlimit:4;stroke-opacity:1;stroke-dasharray:none"
         id="rect4017-9"
         width="627.14288"
         height="440.32178"
         x="66.428551"
         y="15.611825" />
    </clipPath>
    <clipPath
       clipPathUnits="userSpaceOnUse"
       id="clipPath4059">
      <rect
         style="fill:#000000;fill-opacity:1;stroke:#000000;stroke-width:39.58890533;stroke-miterlimit:4;stroke-opacity:1;stroke-dasharray:none"
         id="rect4061"
         width="430.22638"
         height="274.69855"
         x="-720.72821"
         y="25.371979" />
    </clipPath>
    <clipPath
       clipPathUnits="userSpaceOnUse"
       id="clipPath4059-3">
      <rect
         style="fill:#000000;fill-opacity:1;stroke:#000000;stroke-width:39.58890533;stroke-miterlimit:4;stroke-opacity:1;stroke-dasharray:none"
         id="rect4061-9"
         width="430.22638"
         height="274.69855"
         x="-720.72821"
         y="25.371979" />
    </clipPath>
  </defs>
  <sodipodi:namedview
     id="base"
     pagecolor="#ffffff"
     bordercolor="#666666"
     borderopacity="1.0"
     inkscape:pageopacity="0.0"
     inkscape:pageshadow="2"
     inkscape:zoom="0.35"
     inkscape:cx="193.29713"
     inkscape:cy="849.36497"
     inkscape:document-units="px"
     inkscape:current-layer="layer1"
     showgrid="false"
     inkscape:window-width="1270"
     inkscape:window-height="886"
     inkscape:window-x="201"
     inkscape:window-y="262"
     inkscape:window-maximized="0" />
  <metadata
     id="metadata7">
    <rdf:RDF>
      <cc:Work
         rdf:about="">
        <dc:format>image/svg+xml</dc:format>
        <dc:type
           rdf:resource="http://purl.org/dc/dcmitype/StillImage" />
        <dc:title />
      </cc:Work>
    </rdf:RDF>
  </metadata>
  <g
     inkscape:label="Layer 1"
     inkscape:groupmode="layer"
     id="layer1">
    <path
       style="fill:#000000"
       d=""
       id="path3010"
       inkscape:connector-curvature="0" />
    <path
       style="fill:#000000"
       d=""
       id="path3008"
       inkscape:connector-curvature="0" />
    <path
       style="fill:#000000"
       d=""
       id="path3006"
       inkscape:connector-curvature="0" />
    <path
       style="fill:#000000"
       d=""
       id="path3004"
       inkscape:connector-curvature="0" />
    <path
       style="fill:#000000"
       d=""
       id="path3002"
       inkscape:connector-curvature="0" />
    <path
       style="fill:#000000"
       d=""
       id="path3000"
       inkscape:connector-curvature="0" />
    <g
       transform="matrix(0.714522,0,0,0.714522,-674.7129,798.13468)"
       id="g38885">
      <g
         style="fill:#fff800;fill-opacity:1"
         transform="matrix(1.2661681,0,0,1.2661681,1585.6025,-425.98316)"
         id="g4391">
        <path
           sodipodi:type="arc"
           style="fill:#fff800;fill-opacity:1;fill-rule:evenodd;stroke:none"
           id="path3023-8"
           sodipodi:cx="376.42856"
           sodipodi:cy="454.50504"
           sodipodi:rx="273.57144"
           sodipodi:ry="273.57144"
           d="m 650,454.50504 c 0,151.08933 -122.48211,273.57144 -273.57144,273.57144 -151.08934,0 -273.57144,-122.48211 -273.57144,-273.57144 0,-151.08934 122.4821,-273.57145 273.57144,-273.57145 C 527.51789,180.93359 650,303.4157 650,454.50504 z"
           transform="matrix(-0.33774496,0.58499144,-0.58499144,-0.33774496,83.564071,246.32897)" />
        <path
           style="fill:#e9d932;fill-opacity:1;fill-rule:evenodd;stroke:none"
           d="m -215.36596,154.46803 c 51.581,54.03209 63.8016,137.56726 24.5626,205.53125 -47.6829,82.58915 -153.2859,110.90162 -235.87505,63.21875 -23.88011,-13.78719 -43.22221,-32.42167 -57.5,-53.9375 13.28992,42.89045 42.14072,81.09091 84.09375,105.3125 88.386,51.02966 201.4078,20.72972 252.4375,-67.65625 51.029631,-88.38597 20.7297,-201.40784 -67.6562,-252.4375 -0.0203,-0.0117 -0.0423,-0.0196 -0.0626,-0.0312 z"
           id="path3023-6"
           inkscape:connector-curvature="0" />
        <path
           sodipodi:type="arc"
           style="fill:#fffc9e;fill-opacity:1;fill-rule:evenodd;stroke:none"
           id="path3023-7"
           sodipodi:cx="376.42856"
           sodipodi:cy="454.50504"
           sodipodi:rx="273.57144"
           sodipodi:ry="273.57144"
           d="m 650,454.50504 c 0,151.08933 -122.48211,273.57144 -273.57144,273.57144 -151.08934,0 -273.57144,-122.48211 -273.57144,-273.57144 0,-151.08934 122.4821,-273.57145 273.57144,-273.57145 C 527.51789,180.93359 650,303.4157 650,454.50504 z"
           transform="matrix(-0.17714961,0.30683214,-0.30683214,-0.17714961,-150.27982,233.89765)" />
      </g>
      <path
         transform="matrix(0.86633659,0,0,0.86633659,868.17188,-418.53502)"
         d="m 650,454.50504 c 0,151.08933 -122.48211,273.57144 -273.57144,273.57144 -151.08934,0 -273.57144,-122.48211 -273.57144,-273.57144 0,-151.08934 122.4821,-273.57145 273.57144,-273.57145 C 527.51789,180.93359 650,303.4157 650,454.50504 z"
         sodipodi:ry="273.57144"
         sodipodi:rx="273.57144"
         sodipodi:cy="454.50504"
         sodipodi:cx="376.42856"
         id="path3023-3"
         style="fill:none;stroke:#000000;stroke-width:30;stroke-linecap:butt;stroke-linejoin:miter;stroke-miterlimit:4;stroke-opacity:1;stroke-dasharray:none"
         sodipodi:type="arc" />
    </g>
    <rect
       style="fill:#000000;fill-opacity:1;stroke:none"
       id="rect6035"
       width="74.281998"
       height="22.992046"
       x="142.81602"
       y="867.70972" />
    <g
       id="g6057"
       transform="matrix(0.61901663,0,0,0.61901663,-48.194835,507.04095)">
      <path
         transform="matrix(1.1538462,0,0,1.1538462,-93.648351,887.98824)"
         d="m 354.28571,-404.78067 c 0,20.51343 -16.62942,37.14286 -37.14286,37.14286 -20.51343,0 -37.14285,-16.62943 -37.14285,-37.14286 0,-20.51343 16.62942,-37.14286 37.14285,-37.14286 20.51344,0 37.14286,16.62943 37.14286,37.14286 z"
         sodipodi:ry="37.142857"
         sodipodi:rx="37.142857"
         sodipodi:cy="-404.78067"
         sodipodi:cx="317.14285"
         id="path6037"
         style="fill:#000000;fill-opacity:1;stroke:none"
         sodipodi:type="arc" />
      <path
         transform="matrix(1.1538462,0,0,1.1538462,102.63736,887.98824)"
         d="m 354.28571,-404.78067 c 0,20.51343 -16.62942,37.14286 -37.14286,37.14286 -20.51343,0 -37.14285,-16.62943 -37.14285,-37.14286 0,-20.51343 16.62942,-37.14286 37.14285,-37.14286 20.51344,0 37.14286,16.62943 37.14286,37.14286 z"
         sodipodi:ry="37.142857"
         sodipodi:rx="37.142857"
         sodipodi:cy="-404.78067"
         sodipodi:cx="317.14285"
         id="path6037-5"
         style="fill:#000000;fill-opacity:1;stroke:none"
         sodipodi:type="arc" />
    </g>
    <g
       id="g6081"
       transform="matrix(0.61901663,0,0,0.61901663,-49.470305,507.04095)">
      <path
         transform="matrix(0.73232654,0,0,0.4834386,102.85823,395.02523)"
         sodipodi:open="true"
         sodipodi:end="2.9361973"
         sodipodi:start="1.5707963"
         d="m 334.28571,-144.78069 c -70.37468,1e-5 -131.09531,-49.37422 -145.44852,-118.26965"
         sodipodi:ry="148.57143"
         sodipodi:rx="148.57143"
         sodipodi:cy="-293.35211"
         sodipodi:cx="334.28571"
         id="path6061"
         style="fill:none;stroke:#000000;stroke-width:58.41766739;stroke-miterlimit:4;stroke-opacity:1;stroke-dasharray:none"
         sodipodi:type="arc" />
      <path
         transform="matrix(-0.73232654,0,0,0.4834386,634.11982,395.02523)"
         sodipodi:open="true"
         sodipodi:end="2.9361973"
         sodipodi:start="1.5707963"
         d="m 334.28571,-144.78069 c -70.37468,1e-5 -131.09531,-49.37422 -145.44852,-118.26965"
         sodipodi:ry="148.57143"
         sodipodi:rx="148.57143"
         sodipodi:cy="-293.35211"
         sodipodi:cx="334.28571"
         id="path6061-8"
         style="fill:none;stroke:#000000;stroke-width:58.41766739;stroke-miterlimit:4;stroke-opacity:1;stroke-dasharray:none"
         sodipodi:type="arc" />
    </g>
    <path
       style="fill:#fbff00;fill-opacity:1;stroke:#000000;stroke-width:21.51639748;stroke-linecap:square;stroke-linejoin:miter;stroke-miterlimit:4;stroke-opacity:1"
       d="m 463.53454,1041.604 c 34.59969,-35.1577 30.61006,-52.79758 9.60132,-99.77754 -20.1368,-45.03012 -84.63276,-78.36271 -119.23239,-43.20501 -34.59962,35.15769 -30.61,100.55027 4.54773,135.14985 1.15515,1.1369 2.341,2.242 3.55631,3.3143"
       id="path6085"
       inkscape:connector-curvature="0"
       sodipodi:nodetypes="csssc" />
    <path
       style="fill:#fbff00;fill-opacity:1;stroke:#000000;stroke-width:22.97164345;stroke-linecap:square;stroke-linejoin:miter;stroke-miterlimit:4;stroke-opacity:1"
       d="m 373.74578,948.31549 c -12.33255,-33.32905 -12.1713,-86.9373 0.36014,-119.73734 12.53143,-32.80004 32.68776,-32.37117 45.02031,0.9579 12.33247,33.32907 12.17129,86.93731 -0.36021,119.73735 -0.41171,1.0777 -0.83444,2.12538 -1.26763,3.1419"
       id="path6091"
       inkscape:connector-curvature="0" />
    <path
       style="fill:#fbff00;fill-opacity:1;stroke:#000000;stroke-width:19.02293777;stroke-linecap:square;stroke-linejoin:miter;stroke-miterlimit:4;stroke-opacity:1"
       d="m 337.38787,994.5929 c -13.38863,-20.18957 -25.59391,-47.35766 -11.98934,-67.22676 13.60457,-19.8691 33.71827,-19.60931 47.10691,0.58026 13.38863,20.18956 27.36252,47.35766 13.75795,67.22676 -0.447,0.65282 -0.90589,1.28747 -1.37617,1.90325"
       id="path6087"
       inkscape:connector-curvature="0"
       sodipodi:nodetypes="csssc" />
    <path
       sodipodi:type="arc"
       style="fill:#fbff00;fill-opacity:1;stroke:#000000;stroke-width:34.75899887;stroke-linecap:square;stroke-linejoin:miter;stroke-miterlimit:4;stroke-opacity:1;stroke-dasharray:none"
       id="path6094"
       sodipodi:cx="1514.2858"
       sodipodi:cy="-89.066391"
       sodipodi:rx="68.571426"
       sodipodi:ry="78.571426"
       d="m 1450.0715,-116.62776 a 68.571426,78.571426 0 0 1 132.6821,23.243091"
       sodipodi:start="3.4999977"
       sodipodi:end="6.2281977"
       sodipodi:open="true"
       transform="matrix(-0.35659108,-0.284417,0.33717109,-0.30079853,1024.3682,1388.6437)" />
  </g>
</svg>
